<?xml version="1.0" encoding="UTF-8"?>
<svg version="1.1" xmlns="http://www.w3.org/2000/svg" width="666" height="375">
<path d="M0 0 C2.81385206 -0.29167512 5.40426945 -0.39597908 8.21875 -0.36328125 C9.03243042 -0.36377975 9.84611084 -0.36427826 10.68444824 -0.36479187 C12.40603068 -0.36244974 14.12761643 -0.35271296 15.84912109 -0.33618164 C18.48956813 -0.31259319 21.1290057 -0.31561877 23.76953125 -0.32226562 C25.44011021 -0.31668889 27.1106849 -0.30957903 28.78125 -0.30078125 C29.57398315 -0.30169266 30.36671631 -0.30260406 31.18347168 -0.30354309 C36.76897653 -0.23102347 36.76897653 -0.23102347 39 2 C39.125 4.625 39.125 4.625 39 7 C39.62390625 7.08121094 40.2478125 7.16242188 40.890625 7.24609375 C43 8 43 8 44.046875 9.84765625 C44.69791667 11.8984375 45.34895833 13.94921875 46 16 C47.32 13.36 48.64 10.72 50 8 C52.475 8.495 52.475 8.495 55 9 C55.99 12.96 56.98 16.92 58 21 C58.30292969 19.86820313 58.60585938 18.73640625 58.91796875 17.5703125 C59.34007876 16.08823734 59.76331482 14.60648256 60.1875 13.125 C60.38408203 12.37863281 60.58066406 11.63226563 60.78320312 10.86328125 C62.38997271 5.37554513 62.38997271 5.37554513 65.55078125 3.4296875 C68 3 68 3 70 4 C70.5625 6.66796875 70.5625 6.66796875 71 10.1875 C71.16242188 11.44949219 71.32484375 12.71148437 71.4921875 14.01171875 C71.57436523 14.66962402 71.65654297 15.3275293 71.74121094 16.00537109 C72.29774783 20.29490543 72.98337444 24.56745013 73.6328125 28.84375 C73.99168817 31.92855367 74.06541012 34.89769138 74 38 C72.35 38 70.7 38 69 38 C66.72669871 32.15436812 65.95972128 26.16963683 65 20 C63.35 24.62 61.7 29.24 60 34 C57.03 34.495 57.03 34.495 54 35 C53.01 30.71 52.02 26.42 51 22 C49.48702009 26.7406704 48.68571982 31.11491967 48.34375 36.08203125 C48 38 48 38 46 40 C44 39.9375 44 39.9375 42 39 C39.67151017 34.95578083 39.5358669 30.55253878 39 26 C39.02320313 27.20398438 39.04640625 28.40796875 39.0703125 29.6484375 C39.08906863 31.22395215 39.10726899 32.79947348 39.125 34.375 C39.14175781 35.1690625 39.15851563 35.963125 39.17578125 36.78125 C39.19335473 38.85492015 39.10335168 40.92883241 39 43 C36.45434588 45.54565412 34.80824286 45.2472401 31.3359375 45.27789307 C30.17964844 45.27182037 30.17964844 45.27182037 29 45.265625 C28.20851563 45.26753845 27.41703125 45.2694519 26.6015625 45.27142334 C24.9270801 45.27278518 23.25258715 45.26908882 21.578125 45.26074219 C19.01017619 45.2500424 16.44292697 45.26063725 13.875 45.2734375 C12.24999845 45.2721159 10.62499734 45.26955351 9 45.265625 C7.84371094 45.27169769 7.84371094 45.27169769 6.6640625 45.27789307 C1.22992132 45.22992132 1.22992132 45.22992132 -1 43 C-1.27070006 40.02625804 -1.4222682 37.13989674 -1.484375 34.16015625 C-1.5084845 33.28225937 -1.53259399 32.40436249 -1.55743408 31.49986267 C-1.60577244 29.64138499 -1.64915503 27.78277285 -1.68798828 25.92407227 C-1.74968497 23.07703743 -1.83275112 20.23118227 -1.91796875 17.38476562 C-1.96222948 15.5807604 -2.00523988 13.77672398 -2.046875 11.97265625 C-2.07279724 11.11946304 -2.09871948 10.26626984 -2.12542725 9.38722229 C-2.22979314 3.34468971 -2.22979314 3.34468971 0 0 Z " fill="#BB3C2E" transform="translate(340,154)"/>
<path d="M0 0 C10.56 0 21.12 0 32 0 C32 11.55 32 23.1 32 35 C21.44 35 10.88 35 0 35 C0 23.45 0 11.9 0 0 Z " fill="#44F096" transform="translate(343,159)"/>
<path d="M0 0 C1.125 3.75 1.125 3.75 0 6 C-2.36328125 6.34375 -2.36328125 6.34375 -5.3125 6.5 C-9.01414377 6.69768458 -11.88085676 6.88726225 -15 9 C-15.33 9.99 -15.66 10.98 -16 12 C-12.07915441 13.99481618 -8.1950957 15.95411861 -4.125 17.625 C-1 19 -1 19 1 21 C2.9931567 21.02375926 2.9931567 21.02375926 5.125 20.625 C6.40375 20.41875 7.6825 20.2125 9 20 C9.39832031 18.66195312 9.39832031 18.66195312 9.8046875 17.296875 C10.15789062 16.12640625 10.51109375 14.9559375 10.875 13.75 C11.39707031 12.00976562 11.39707031 12.00976562 11.9296875 10.234375 C13.6306099 5.09436133 13.6306099 5.09436133 15 3 C18.125 2.25 18.125 2.25 21 2 C21.96423026 3.39176632 22.92111602 4.7886223 23.875 6.1875 C24.40867187 6.96480469 24.94234375 7.74210938 25.4921875 8.54296875 C27 11 27 11 28.0078125 13.67578125 C28.88548002 16.31903914 28.88548002 16.31903914 32 18 C31.67 19.32 31.34 20.64 31 22 C30.34 22 29.68 22 29 22 C29.31582031 22.54398438 29.63164062 23.08796875 29.95703125 23.6484375 C31.16751619 26.37769568 31.443325 28.6548713 31.6875 31.625 C31.77386719 32.58664063 31.86023438 33.54828125 31.94921875 34.5390625 C32 37 32 37 31 39 C29.35 38.67 27.7 38.34 26 38 C25.66179834 36.4176994 25.32964061 34.83410625 25 33.25 C24.814375 32.36828125 24.62875 31.4865625 24.4375 30.578125 C24 28 24 28 24 24 C23.01 24.495 23.01 24.495 22 25 C20.45976004 25.06950541 18.91665012 25.08452357 17.375 25.0625 C16.14910156 25.04896484 16.14910156 25.04896484 14.8984375 25.03515625 C14.27195312 25.02355469 13.64546875 25.01195312 13 25 C12.814375 26.485 12.814375 26.485 12.625 28 C12.42388264 29.33444084 12.21496455 30.6677197 12 32 C11.88914062 32.71800781 11.77828125 33.43601563 11.6640625 34.17578125 C11.25 36.3125 11.25 36.3125 10 40 C7.375 41.5 7.375 41.5 5 42 C4.505 41.505 4.505 41.505 4 41 C4.05078125 38.85546875 4.05078125 38.85546875 4.3125 36.1875 C4.43044922 34.87845703 4.43044922 34.87845703 4.55078125 33.54296875 C4.99755024 31.01386775 5.73338739 29.21786452 7 27 C4.52815223 27.38311016 3.30599459 27.65413076 1.62109375 29.55859375 C1.23050781 30.17863281 0.83992188 30.79867187 0.4375 31.4375 C-1.55212634 34.56219185 -3.25599186 36.58808189 -7.05078125 37.484375 C-11.92136391 38.05639507 -15.38480942 38.01174974 -20 36 C-20.042721 34.33388095 -20.04063832 32.66617115 -20 31 C-19 30 -19 30 -16.5 29.875 C-14 30 -14 30 -13 31 C-10.67171371 31.58610371 -10.67171371 31.58610371 -8 31 C-6.01550254 29.15533163 -4.60970204 27.20759137 -3 25 C-7.17029044 22.73440952 -11.59349724 21.54343457 -16.125 20.1953125 C-19.25098019 18.89565226 -20.87793506 17.61638124 -23 15 C-23.81415772 10.83874945 -23.24060548 9.36090822 -20.875 5.8125 C-14.75294838 -0.64872345 -8.43144793 -0.36836423 0 0 Z M18 9 C17.67 12.3 17.34 15.6 17 19 C18.98 19 20.96 19 23 19 C22.55090939 17.51800098 22.09043436 16.03944764 21.625 14.5625 C21.24214844 13.32693359 21.24214844 13.32693359 20.8515625 12.06640625 C20.19117773 9.82201984 20.19117773 9.82201984 18 9 Z " fill="#B32013" transform="translate(276,158)"/>
<path d="M0 0 C-0.01047363 0.71655762 -0.02094727 1.43311523 -0.03173828 2.17138672 C-0.07321299 5.40588905 -0.09929892 8.64033553 -0.125 11.875 C-0.14175781 13.00292969 -0.15851563 14.13085938 -0.17578125 15.29296875 C-0.18222656 16.36933594 -0.18867188 17.44570312 -0.1953125 18.5546875 C-0.20578613 19.54968262 -0.21625977 20.54467773 -0.22705078 21.56982422 C-0.24379401 24.18171417 -0.24379401 24.18171417 2 26 C2 27.32 2 28.64 2 30 C0.68 30.33 -0.64 30.66 -2 31 C-2.07347656 32.37285156 -2.07347656 32.37285156 -2.1484375 33.7734375 C-2.22320312 34.96195313 -2.29796875 36.15046875 -2.375 37.375 C-2.44460937 38.55835938 -2.51421875 39.74171875 -2.5859375 40.9609375 C-3 44 -3 44 -5 46 C-7.125 45.625 -7.125 45.625 -9 45 C-9.02736707 43.60427948 -9.04655989 42.20839779 -9.0625 40.8125 C-9.07410156 40.03519531 -9.08570313 39.25789063 -9.09765625 38.45703125 C-9 36 -9 36 -8 31 C-13.445 31.495 -13.445 31.495 -19 32 C-19.33 37.28 -19.66 42.56 -20 48 C-21.65 48 -23.3 48 -25 48 C-26.14806378 38.58997722 -26.14806378 38.58997722 -26 34 C-27.98 33.34 -29.96 32.68 -32 32 C-32 30.35 -32 28.7 -32 27 C-28.535 26.505 -28.535 26.505 -25 26 C-24.96261719 24.80761719 -24.92523438 23.61523438 -24.88671875 22.38671875 C-24.82105968 20.820281 -24.75461232 19.25387616 -24.6875 17.6875 C-24.65366211 16.50897461 -24.65366211 16.50897461 -24.61914062 15.30664062 C-24.58369141 14.54931641 -24.54824219 13.79199219 -24.51171875 13.01171875 C-24.48553467 12.31522217 -24.45935059 11.61872559 -24.43237305 10.90112305 C-23.88776232 8.50649641 -22.84170838 7.56727453 -21 6 C-19.68 6.66 -18.36 7.32 -17 8 C-17 13.94 -17 19.88 -17 26 C-13.7 25.67 -10.4 25.34 -7 25 C-7.01160156 23.61425781 -7.02320313 22.22851562 -7.03515625 20.80078125 C-7.04453792 18.97135552 -7.05363772 17.14192832 -7.0625 15.3125 C-7.07087891 14.40048828 -7.07925781 13.48847656 -7.08789062 12.54882812 C-7.09272461 11.21948242 -7.09272461 11.21948242 -7.09765625 9.86328125 C-7.10289307 9.05157471 -7.10812988 8.23986816 -7.11352539 7.40356445 C-6.99157243 4.82157106 -6.68353776 2.49444095 -6 0 C-3.50907189 -1.24546405 -2.58919267 -0.7767578 0 0 Z " fill="#B53E31" transform="translate(249,152)"/>
<path d="M0 0 C3.94690003 -0.05003872 7.89367309 -0.08601633 11.84082031 -0.10986328 C13.83144637 -0.12467591 15.82198437 -0.15010992 17.8125 -0.17578125 C25.13189641 -0.2127479 31.90273095 0.14353358 39 2 C39.12152487 9.73708326 38.84800767 17.307359 38 25 C38.66 25 39.32 25 40 25 C40.05380578 27.79192205 40.09357669 30.5828141 40.125 33.375 C40.14175781 34.1690625 40.15851563 34.963125 40.17578125 35.78125 C40.19335473 37.85492015 40.10335168 39.92883241 40 42 C37.45434588 44.54565412 35.80824286 44.2472401 32.3359375 44.27789307 C31.17964844 44.27182037 31.17964844 44.27182037 30 44.265625 C29.20851563 44.26753845 28.41703125 44.2694519 27.6015625 44.27142334 C25.9270801 44.27278518 24.25258715 44.26908882 22.578125 44.26074219 C20.01017619 44.2500424 17.44292697 44.26063725 14.875 44.2734375 C13.24999845 44.2721159 11.62499734 44.26955351 10 44.265625 C8.84371094 44.27169769 8.84371094 44.27169769 7.6640625 44.27789307 C2.22992132 44.22992132 2.22992132 44.22992132 0 42 C-0.25840438 39.01449649 -0.39804258 36.11563948 -0.44921875 33.125 C-0.47095657 32.24473145 -0.4926944 31.36446289 -0.51509094 30.45751953 C-0.55903924 28.59482997 -0.59823191 26.73202309 -0.63305664 24.86914062 C-0.68728484 22.0113388 -0.75746188 19.1542626 -0.83007812 16.296875 C-0.87073651 14.48960434 -0.91048087 12.68231284 -0.94921875 10.875 C-0.96997971 10.01664551 -0.99074066 9.15829102 -1.01213074 8.27392578 C-1.11590491 2.23180981 -1.11590491 2.23180981 0 0 Z M4 4 C4 15.55 4 27.1 4 39 C14.56 39 25.12 39 36 39 C36 27.45 36 15.9 36 4 C25.44 4 14.88 4 4 4 Z " fill="#162318" transform="translate(339,155)"/>
<path d="M0 0 C3.04296875 1.03125 3.04296875 1.03125 5.0546875 3.9375 C5.60769531 5.1234375 6.16070312 6.309375 6.73046875 7.53125 C7.76994606 9.72968476 8.86271253 11.90507415 10.04296875 14.03125 C11.03296875 14.36125 12.02296875 14.69125 13.04296875 15.03125 C13.37296875 16.02125 13.70296875 17.01125 14.04296875 18.03125 C13.52734375 18.5675 13.01171875 19.10375 12.48046875 19.65625 C10.717306 22.56930151 11.07745204 23.25543442 11.85546875 26.46875 C12.06429688 27.25121094 12.273125 28.03367188 12.48828125 28.83984375 C13.11290507 31.3075477 13.28064197 33.49606903 13.04296875 36.03125 C12.04296875 37.03125 12.04296875 37.03125 9.54296875 37.15625 C7.04296875 37.03125 7.04296875 37.03125 6.04296875 36.03125 C5.64630648 33.85105521 5.29981638 31.6616037 4.98046875 29.46875 C4.80386719 28.27121094 4.62726563 27.07367188 4.4453125 25.83984375 C4.24615234 24.44958984 4.24615234 24.44958984 4.04296875 23.03125 C0.74296875 23.03125 -2.55703125 23.03125 -5.95703125 23.03125 C-6.11171875 24.76375 -6.11171875 24.76375 -6.26953125 26.53125 C-6.85578977 31.09918096 -7.98030741 34.85816634 -9.95703125 39.03125 C-11.9375 39.81640625 -11.9375 39.81640625 -13.95703125 40.03125 C-14.61703125 39.70125 -15.27703125 39.37125 -15.95703125 39.03125 C-15.4039039 35.00132218 -14.80122505 31.01102076 -13.95703125 27.03125 C-15.27703125 26.37125 -16.59703125 25.71125 -17.95703125 25.03125 C-17.95703125 23.38125 -17.95703125 21.73125 -17.95703125 20.03125 C-14.8689343 18.26662317 -13.72390989 18.03125 -9.95703125 18.03125 C-9.70308594 16.89945313 -9.44914062 15.76765625 -9.1875 14.6015625 C-8.84046873 13.11964517 -8.49277812 11.63788214 -8.14453125 10.15625 C-7.97888672 9.40988281 -7.81324219 8.66351563 -7.64257812 7.89453125 C-6.43800999 2.84898171 -5.72350823 0.06048622 0 0 Z M-0.95703125 8.03125 C-1.61703125 11.00125 -2.27703125 13.97125 -2.95703125 17.03125 C-0.97703125 17.03125 1.00296875 17.03125 3.04296875 17.03125 C2.38296875 14.06125 1.72296875 11.09125 1.04296875 8.03125 C0.38296875 8.03125 -0.27703125 8.03125 -0.95703125 8.03125 Z " fill="#B22316" transform="translate(462.95703125,159.96875)"/>
<path d="M0 0 C0 1.65 0 3.3 0 5 C-1.60256108 5.50512244 -3.20711792 6.00391627 -4.8125 6.5 C-5.70582031 6.7784375 -6.59914062 7.056875 -7.51953125 7.34375 C-10 8 -10 8 -13 8 C-13 14.93 -13 21.86 -13 29 C-10.03 29 -7.06 29 -4 29 C-3.01 29.66 -2.02 30.32 -1 31 C-1.33 32.65 -1.66 34.3 -2 36 C-5.20782086 36.95376567 -8.08187396 37.11621181 -11.421875 37.09765625 C-12.44667969 37.09443359 -13.47148437 37.09121094 -14.52734375 37.08789062 C-15.59082031 37.07951172 -16.65429688 37.07113281 -17.75 37.0625 C-18.82894531 37.05798828 -19.90789062 37.05347656 -21.01953125 37.04882812 C-23.67974383 37.03705727 -26.33984365 37.02061399 -29 37 C-29.38218767 35.34385343 -29.71395102 33.67542976 -30 32 C-28.03177114 30.03177114 -24.65191291 30.33751619 -22 30 C-19.79050168 25.58970217 -19.7629352 21.51059676 -19.875 16.6875 C-19.88402344 15.94693359 -19.89304688 15.20636719 -19.90234375 14.44335938 C-19.92575787 12.62876533 -19.96162385 10.81433929 -20 9 C-23.3 9 -26.6 9 -30 9 C-30.66 7.35 -31.32 5.7 -32 4 C-29.48353674 1.48353674 -28.3727544 1.65278693 -24.87890625 1.40234375 C-23.86119141 1.32306641 -22.84347656 1.24378906 -21.79492188 1.16210938 C-20.72822266 1.08798828 -19.66152344 1.01386719 -18.5625 0.9375 C-16.45939584 0.78317883 -14.35651573 0.62576453 -12.25390625 0.46484375 C-10.85120483 0.36610962 -10.85120483 0.36610962 -9.42016602 0.26538086 C-1.82757164 -0.56717741 -1.82757164 -0.56717741 0 0 Z " fill="#AF301F" transform="translate(219,159)"/>
<path d="M0 0 C0 1.65 0 3.3 0 5 C-1.4117783 5.53394179 -2.82970244 6.05165104 -4.25 6.5625 C-5.03890625 6.85253906 -5.8278125 7.14257812 -6.640625 7.44140625 C-9 8 -9 8 -13 7 C-12.67 14.59 -12.34 22.18 -12 30 C-8.37 30 -4.74 30 -1 30 C-0.67 31.65 -0.34 33.3 0 35 C-3.3506974 38.3506974 -14.26939886 36.98804743 -18.8203125 37.0625 C-21.8809178 37.0625 -24.93976339 37.04575105 -28 37 C-28.38218767 35.34385343 -28.71395102 33.67542976 -29 32 C-26.95301586 29.95301586 -22.69588759 30.29954307 -20 30 C-19.97494385 29.44014404 -19.9498877 28.88028809 -19.92407227 28.3034668 C-19.80796255 25.76458695 -19.6853042 23.22606447 -19.5625 20.6875 C-19.50352539 19.36588867 -19.50352539 19.36588867 -19.44335938 18.01757812 C-19.40146484 17.17001953 -19.35957031 16.32246094 -19.31640625 15.44921875 C-19.26141968 14.27879028 -19.26141968 14.27879028 -19.20532227 13.0847168 C-19 11 -19 11 -18 8 C-21.96 8 -25.92 8 -30 8 C-30.33 6.35 -30.66 4.7 -31 3 C-29.34414305 1.34414305 -27.29168701 1.67642729 -25.01171875 1.5 C-23.48708008 1.37625 -23.48708008 1.37625 -21.93164062 1.25 C-20.86107422 1.1675 -19.79050781 1.085 -18.6875 1 C-16.58700175 0.83635802 -14.48672777 0.6698049 -12.38671875 0.5 C-10.98232544 0.39171875 -10.98232544 0.39171875 -9.54956055 0.28125 C-7.04269543 0.07309516 -7.04269543 0.07309516 -4.85083008 -0.59375 C-3 -1 -3 -1 0 0 Z " fill="#B5372B" transform="translate(445,159)"/>
<path d="M0 0 C1.4540625 0.0309375 1.4540625 0.0309375 2.9375 0.0625 C3.99478087 6.92233809 4.05389843 13.63033224 4 20.5625 C3.99548828 21.67109375 3.99097656 22.7796875 3.98632812 23.921875 C3.97463158 26.63547399 3.95824086 29.34895761 3.9375 32.0625 C1.9575 31.7325 -0.0225 31.4025 -2.0625 31.0625 C-2.0625 30.4025 -2.0625 29.7425 -2.0625 29.0625 C-2.64 28.876875 -3.2175 28.69125 -3.8125 28.5 C-6.53879505 26.75820038 -7.56050992 24.70218753 -9.046875 21.8828125 C-10.44462016 19.37762309 -12.211051 17.24456489 -14.0625 15.0625 C-15.44022835 19.19568505 -15.0333718 23.02373058 -14.90234375 27.34765625 C-15.0625 30.0625 -15.0625 30.0625 -17.0625 32.0625 C-18.3825 31.7325 -19.7025 31.4025 -21.0625 31.0625 C-21.0625 22.1525 -21.0625 13.2425 -21.0625 4.0625 C-19.4125 3.7325 -17.7625 3.4025 -16.0625 3.0625 C-13.9296875 4.7578125 -13.9296875 4.7578125 -11.9375 7.1875 C-10.94363281 8.36699219 -10.94363281 8.36699219 -9.9296875 9.5703125 C-8.0625 12.0625 -8.0625 12.0625 -6.5078125 14.7421875 C-5.12386993 17.31984044 -5.12386993 17.31984044 -2.0625 19.0625 C-2.21847656 17.77472656 -2.37445313 16.48695313 -2.53515625 15.16015625 C-2.73205785 13.48180448 -2.92865686 11.80341719 -3.125 10.125 C-3.22876953 9.27486328 -3.33253906 8.42472656 -3.43945312 7.54882812 C-3.53291016 6.73994141 -3.62636719 5.93105469 -3.72265625 5.09765625 C-3.81168213 4.3487915 -3.90070801 3.59992676 -3.99243164 2.82836914 C-4.0155542 2.24563232 -4.03867676 1.66289551 -4.0625 1.0625 C-3.0625 0.0625 -3.0625 0.0625 0 0 Z " fill="#B52214" transform="translate(334.0625,161.9375)"/>
<path d="M0 0 C1.4140625 1.671875 1.4140625 1.671875 2.625 3.75 C3.0478125 4.46929687 3.470625 5.18859375 3.90625 5.9296875 C5 8 5 8 6.125 10.875 C6.91011344 13.34320324 6.91011344 13.34320324 10 15 C9.67 16.32 9.34 17.64 9 19 C8.34 19 7.68 19 7 19 C7.31582031 19.54398438 7.63164062 20.08796875 7.95703125 20.6484375 C9.16751619 23.37769568 9.443325 25.6548713 9.6875 28.625 C9.77386719 29.58664063 9.86023438 30.54828125 9.94921875 31.5390625 C10 34 10 34 9 36 C7.35 35.67 5.7 35.34 4 35 C3.66179834 33.4176994 3.32964061 31.83410625 3 30.25 C2.7215625 28.92742187 2.7215625 28.92742187 2.4375 27.578125 C2 25 2 25 2 21 C1.34 21.33 0.68 21.66 0 22 C-2.3329866 22.04022391 -4.66706666 22.04320247 -7 22 C-6.01 21.01 -5.02 20.02 -4 19 C-4.66 18.34 -5.32 17.68 -6 17 C-6.125 13.875 -6.125 13.875 -6 11 C-5.67 11 -5.34 11 -5 11 C-5 12.65 -5 14.3 -5 16 C-3.35 15.67 -1.7 15.34 0 15 C-0.99 12.36 -1.98 9.72 -3 7 C-3.99 8.485 -3.99 8.485 -5 10 C-5.99 10 -6.98 10 -8 10 C-8.66 12.31 -9.32 14.62 -10 17 C-10.66 17 -11.32 17 -12 17 C-10.1538817 4.79390018 -10.1538817 4.79390018 -7 0 C-3.85076381 -1.0497454 -2.98278614 -1.20254619 0 0 Z " fill="#B73226" transform="translate(298,161)"/>
<path d="M0 0 C3.98355132 -0.02493556 7.96707167 -0.04297028 11.95068359 -0.05493164 C13.96323241 -0.06236421 15.97575949 -0.07507829 17.98828125 -0.08789062 C19.91220703 -0.09272461 19.91220703 -0.09272461 21.875 -0.09765625 C23.04804688 -0.10289307 24.22109375 -0.10812988 25.4296875 -0.11352539 C29.35405105 0.01125778 33.11275119 0.45989668 37 1 C37.02464849 6.39346988 37.04283531 11.78690725 37.05493164 17.18041992 C37.05997231 19.01668875 37.06680477 20.85295354 37.07543945 22.68920898 C37.08751672 25.32276401 37.09323081 27.95626616 37.09765625 30.58984375 C37.10281754 31.41588608 37.10797882 32.24192841 37.11329651 33.09300232 C37.11349205 35.06236368 37.06204152 37.03161614 37 39 C36 40 36 40 32.85717773 40.11352539 C31.46597304 40.11327441 30.07476209 40.10771709 28.68359375 40.09765625 C28.03588013 40.09664917 27.3881665 40.09564209 26.7208252 40.09460449 C24.29303221 40.08935843 21.86526439 40.07539725 19.4375 40.0625 C11.3009375 40.0315625 11.3009375 40.0315625 3 40 C2.67 28.12 2.34 16.24 2 4 C1.67 16.54 1.34 29.08 1 42 C0.67 42 0.34 42 0 42 C-0.16740321 36.34017703 -0.32798446 30.68021782 -0.48217773 25.02001953 C-0.53562804 23.09353392 -0.59095971 21.16709958 -0.64819336 19.24072266 C-0.73001986 16.4756984 -0.80513291 13.71056186 -0.87890625 10.9453125 C-0.90594131 10.0806839 -0.93297638 9.2160553 -0.96083069 8.32522583 C-1.11387171 2.22774341 -1.11387171 2.22774341 0 0 Z M4 4 C4 15.55 4 27.1 4 39 C14.56 39 25.12 39 36 39 C36 27.45 36 15.9 36 4 C25.44 4 14.88 4 4 4 Z " fill="#214B32" transform="translate(339,155)"/>
<path d="M0 0 C5.23273331 -0.04935824 10.46533176 -0.08569949 15.69824219 -0.10986328 C17.47919067 -0.11993431 19.26012257 -0.13359185 21.04101562 -0.15087891 C23.59769783 -0.17507913 26.15416185 -0.18647184 28.7109375 -0.1953125 C29.90944839 -0.21079636 29.90944839 -0.21079636 31.13217163 -0.22659302 C33.0895722 -0.22699226 35.04643077 -0.12241069 37 0 C39 2 39 2 39.125 4.625 C39.08375 5.40875 39.0425 6.1925 39 7 C39.61875 7.04125 40.2375 7.0825 40.875 7.125 C41.57625 7.41375 42.2775 7.7025 43 8 C44.78607932 12.28659036 45.34263245 16.26299664 45.625 20.875 C45.69976562 22.02742188 45.77453125 23.17984375 45.8515625 24.3671875 C45.90054688 25.23601562 45.94953125 26.10484375 46 27 C47.32 25.68 48.64 24.36 50 23 C49.855625 23.804375 49.71125 24.60875 49.5625 25.4375 C49.00428835 28.97284047 48.66392924 32.48105548 48.37890625 36.046875 C48 38 48 38 46 40 C44 39.9375 44 39.9375 42 39 C40.01548783 35.10236098 39.63747646 31.51836152 39.375 27.1875 C39.30023438 26.02605469 39.22546875 24.86460937 39.1484375 23.66796875 C39.09945312 22.78753906 39.05046875 21.90710938 39 21 C38.505 23.475 38.505 23.475 38 26 C37.67 26 37.34 26 37 26 C36.86309156 18.27227893 37.24833087 10.69118596 38 3 C29.80371106 2.02539021 21.62104758 1.69651591 13.375 1.4375 C12.08464844 1.39431641 10.79429687 1.35113281 9.46484375 1.30664062 C6.30998067 1.20147852 3.15505105 1.09933396 0 1 C0 0.67 0 0.34 0 0 Z " fill="#B43B2C" transform="translate(340,154)"/>
<path d="M0 0 C2.01171875 2.90625 2.01171875 2.90625 3.6875 6.5 C4.72697731 8.69843476 5.81974378 10.87382415 7 13 C7.99 13.33 8.98 13.66 10 14 C10.33 14.99 10.66 15.98 11 17 C10.525625 17.60585937 10.05125 18.21171875 9.5625 18.8359375 C7.53803193 21.63982577 7.77977932 23.22075535 8 26.625 C8.1875 29.5390625 8.1875 29.5390625 8 32 C7.01 32.66 6.02 33.32 5 34 C3.99999816 30.99999449 3.89645779 29.00332868 3.9375 25.875 C3.94652344 24.98554688 3.95554687 24.09609375 3.96484375 23.1796875 C3.97644531 22.46039063 3.98804688 21.74109375 4 21 C4 20.67 4 20.34 4 20 C3.0925 20.04125 2.185 20.0825 1.25 20.125 C-1.8782046 20.00468444 -3.38614006 19.6085292 -6 18 C-6 17.34 -6 16.68 -6 16 C-4.02 16 -2.04 16 0 16 C-0.66 13.03 -1.32 10.06 -2 7 C-2.66 7 -3.32 7 -4 7 C-4 7.66 -4 8.32 -4 9 C-4.99 9 -5.98 9 -7 9 C-6.938125 10.1446875 -6.938125 10.1446875 -6.875 11.3125 C-7 14 -7 14 -9 17 C-9.66 17 -10.32 17 -11 17 C-10.88506243 15.10353002 -10.75760358 13.20781668 -10.625 11.3125 C-10.55539062 10.25675781 -10.48578125 9.20101562 -10.4140625 8.11328125 C-10.00844482 5.06349549 -9.37473086 2.74451665 -8 0 C-4.9489349 -1.52553255 -3.2154832 -1.00306897 0 0 Z " fill="#B52B1B" transform="translate(466,161)"/>
<path d="M0 0 C0 1.65 0 3.3 0 5 C-1.60256108 5.50512244 -3.20711792 6.00391627 -4.8125 6.5 C-5.70582031 6.7784375 -6.59914062 7.056875 -7.51953125 7.34375 C-10 8 -10 8 -13 8 C-13 9.98 -13 11.96 -13 14 C-13.33 14 -13.66 14 -14 14 C-14.33 12.35 -14.66 10.7 -15 9 C-15.66 9 -16.32 9 -17 9 C-17.33 13.95 -17.66 18.9 -18 24 C-18.33 24 -18.66 24 -19 24 C-19.33 19.05 -19.66 14.1 -20 9 C-23.3 9 -26.6 9 -30 9 C-30.66 7.35 -31.32 5.7 -32 4 C-29.48353674 1.48353674 -28.3727544 1.65278693 -24.87890625 1.40234375 C-23.86119141 1.32306641 -22.84347656 1.24378906 -21.79492188 1.16210938 C-20.72822266 1.08798828 -19.66152344 1.01386719 -18.5625 0.9375 C-16.45939584 0.78317883 -14.35651573 0.62576453 -12.25390625 0.46484375 C-10.85120483 0.36610962 -10.85120483 0.36610962 -9.42016602 0.26538086 C-1.82757164 -0.56717741 -1.82757164 -0.56717741 0 0 Z " fill="#B43023" transform="translate(219,159)"/>
<path d="M0 0 C0 0.33 0 0.66 0 1 C-1.98 1 -3.96 1 -6 1 C-5.67 2.65 -5.34 4.3 -5 6 C-5.66 6 -6.32 6 -7 6 C-6.97381592 6.68102783 -6.94763184 7.36205566 -6.9206543 8.0637207 C-6.81678469 11.14641289 -6.75170683 14.22873759 -6.6875 17.3125 C-6.6246582 18.9202832 -6.6246582 18.9202832 -6.56054688 20.56054688 C-6.54443359 21.58857422 -6.52832031 22.61660156 -6.51171875 23.67578125 C-6.48553467 24.62364502 -6.45935059 25.57150879 -6.43237305 26.5480957 C-7 29 -7 29 -9.34301758 30.77026367 C-12 32 -12 32 -15 33 C-7.41 33.33 0.18 33.66 8 34 C7.67 33.34 7.34 32.68 7 32 C4.64400765 31.53248212 4.64400765 31.53248212 1.9375 31.375 C1.01839844 31.30023438 0.09929687 31.22546875 -0.84765625 31.1484375 C-1.55792969 31.09945312 -2.26820313 31.05046875 -3 31 C-2.67 30.34 -2.34 29.68 -2 29 C1.63 29 5.26 29 9 29 C9.33 30.65 9.66 32.3 10 34 C6.6493026 37.3506974 -4.26939886 35.98804743 -8.8203125 36.0625 C-11.8809178 36.0625 -14.93976339 36.04575105 -18 36 C-18.38218767 34.34385343 -18.71395102 32.67542976 -19 31 C-16.95301586 28.95301586 -12.69588759 29.29954307 -10 29 C-9.97494385 28.44014404 -9.9498877 27.88028809 -9.92407227 27.3034668 C-9.80796255 24.76458695 -9.6853042 22.22606447 -9.5625 19.6875 C-9.50352539 18.36588867 -9.50352539 18.36588867 -9.44335938 17.01757812 C-9.40146484 16.17001953 -9.35957031 15.32246094 -9.31640625 14.44921875 C-9.26141968 13.27879028 -9.26141968 13.27879028 -9.20532227 12.0847168 C-9 10 -9 10 -8 7 C-11.96 7 -15.92 7 -20 7 C-20.33 5.35 -20.66 3.7 -21 2 C-17.32563814 -1.67436186 -5.24466303 -0.12196891 0 0 Z " fill="#C16B64" transform="translate(435,160)"/>
<path d="M0 0 C1.125 3.75 1.125 3.75 0 6 C-2.36328125 6.34375 -2.36328125 6.34375 -5.3125 6.5 C-9.01414377 6.69768458 -11.88085676 6.88726225 -15 9 C-15.33 9.99 -15.66 10.98 -16 12 C-13.36 13.32 -10.72 14.64 -8 16 C-8 16.33 -8 16.66 -8 17 C-9.65 17.33 -11.3 17.66 -13 18 C-11.02 18.99 -9.04 19.98 -7 21 C-10.63293998 22.21097999 -11.53992407 21.67110261 -15 20.25 C-15.86625 19.90453125 -16.7325 19.5590625 -17.625 19.203125 C-19.95965104 18.02043993 -21.38032652 17.04016564 -23 15 C-23.73552702 10.86266049 -23.22487907 9.33731861 -20.875 5.8125 C-14.75294838 -0.64872345 -8.43144793 -0.36836423 0 0 Z " fill="#B33B2E" transform="translate(276,158)"/>
<path d="M0 0 C10.56 0 21.12 0 32 0 C32 11.55 32 23.1 32 35 C21.44 35 10.88 35 0 35 C0 23.45 0 11.9 0 0 Z M1 2 C0.97706187 6.23590729 0.95714339 10.47159965 0.94506836 14.70751953 C0.94003526 16.1489332 0.93320827 17.59034176 0.92456055 19.03173828 C0.91245017 21.10190085 0.90676153 23.17199601 0.90234375 25.2421875 C0.89710693 26.4885498 0.89187012 27.73491211 0.88647461 29.01904297 C0.79183413 31.92771106 0.79183413 31.92771106 2 34 C11.24 34 20.48 34 30 34 C30 23.44 30 12.88 30 2 C20.43 2 10.86 2 1 2 Z " fill="#54E098" transform="translate(343,159)"/>
<path d="M0 0 C0.77926219 2.53260212 0.99118426 4.44078677 0.9375 7.125 C0.67134345 10.13239112 0.67134345 10.13239112 3 12 C-0.75 15 -0.75 15 -3 15 C-3.12375 15.99 -3.2475 16.98 -3.375 18 C-3.57611736 19.33444084 -3.78503545 20.6677197 -4 22 C-4.16628906 23.07701172 -4.16628906 23.07701172 -4.3359375 24.17578125 C-4.75 26.3125 -4.75 26.3125 -6 30 C-8.625 31.5 -8.625 31.5 -11 32 C-11.33 31.67 -11.66 31.34 -12 31 C-11.87419322 25.77417977 -11.36140321 20.72280643 -9 16 C-10.32 16 -11.64 16 -13 16 C-13 15.34 -13 14.68 -13 14 C-7.70588235 10 -7.70588235 10 -4 10 C-3.7834375 8.824375 -3.7834375 8.824375 -3.5625 7.625 C-3 5 -3 5 -2 3 C-1.34 3 -0.68 3 0 3 C0 2.01 0 1.02 0 0 Z " fill="#B1190D" transform="translate(292,168)"/>
<path d="M0 0 C0.33 0 0.66 0 1 0 C1 1.65 1 3.3 1 5 C2.98 5 4.96 5 7 5 C7 5.99 7 6.98 7 8 C8.65 7.67 10.3 7.34 12 7 C12 4.57202689 11.49914315 2.37092995 11 0 C12.65 1.32 14.3 2.64 16 4 C15.67 5.32 15.34 6.64 15 8 C14.34 8 13.68 8 13 8 C13.31582031 8.54398438 13.63164062 9.08796875 13.95703125 9.6484375 C15.16751619 12.37769568 15.443325 14.6548713 15.6875 17.625 C15.77386719 18.58664063 15.86023438 19.54828125 15.94921875 20.5390625 C16 23 16 23 15 25 C13.35 24.67 11.7 24.34 10 24 C9.66179834 22.4176994 9.32964061 20.83410625 9 19.25 C8.7215625 17.92742187 8.7215625 17.92742187 8.4375 16.578125 C8 14 8 14 8 10 C7.01 10.495 7.01 10.495 6 11 C3.6670134 11.04022391 1.33293334 11.04320247 -1 11 C-0.01 10.01 0.98 9.02 2 8 C1.34 7.34 0.68 6.68 0 6 C-0.125 2.875 -0.125 2.875 0 0 Z " fill="#C45752" transform="translate(292,172)"/>
<path d="M0 0 C1.65 0.33 3.3 0.66 5 1 C5.50404808 3.10320063 6.00310508 5.20759791 6.5 7.3125 C6.7784375 8.48425781 7.056875 9.65601563 7.34375 10.86328125 C8 14 8 14 8 17 C3.25 16.25 3.25 16.25 1 14 C-0.32 15.98 -1.64 17.96 -3 20 C-3.66 19.34 -4.32 18.68 -5 18 C-4.86328125 15.13671875 -4.86328125 15.13671875 -4.3125 11.6875 C-4.14363281 10.55699219 -3.97476562 9.42648438 -3.80078125 8.26171875 C-2.99903254 4.99605936 -1.88187499 2.76319385 0 0 Z " fill="#BF4333" transform="translate(390,162)"/>
<path d="M0 0 C1.09658936 3.28976808 0.79953138 4.71303767 0 8 C0.66 8 1.32 8 2 8 C2.66 5.36 3.32 2.72 4 0 C4.66 0 5.32 0 6 0 C5.67 2.97 5.34 5.94 5 9 C6.464375 9 7.92875 9 9.4375 9 C11.29166667 9 13.14583333 9 15 9 C15.66 10.32 16.32 11.64 17 13 C16.67 13 16.34 13 16 13 C15.9729957 14.45823212 15.95360213 15.91660675 15.9375 17.375 C15.92589844 18.18710938 15.91429687 18.99921875 15.90234375 19.8359375 C15.85533666 22.04937142 15.85533666 22.04937142 17 24 C18.49743119 22.50256881 18.33202693 21.01175761 18.5625 18.9375 C18.706875 17.638125 18.85125 16.33875 19 15 C19.33 15 19.66 15 20 15 C20.19401633 16.81181405 20.38004375 18.62448532 20.5625 20.4375 C20.66691406 21.44683594 20.77132813 22.45617187 20.87890625 23.49609375 C20.91886719 24.32238281 20.95882813 25.14867187 21 26 C20 27 20 27 17.5 27.125 C15 27 15 27 14 26 C13.60333773 23.81980521 13.25684763 21.6303537 12.9375 19.4375 C12.76089844 18.23996094 12.58429688 17.04242188 12.40234375 15.80859375 C12.20318359 14.41833984 12.20318359 14.41833984 12 13 C8.7 13 5.4 13 2 13 C2 14.65 2 16.3 2 18 C1.67 18 1.34 18 1 18 C1 15.33333333 1 12.66666667 1 10 C-1.31 9.67 -3.62 9.34 -6 9 C-4.68 8.67 -3.36 8.34 -2 8 C-1.34 5.36 -0.68 2.72 0 0 Z " fill="#C24338" transform="translate(455,170)"/>
<path d="M0 0 C3.875 1.75 3.875 1.75 5 4 C4.01 4.33 3.02 4.66 2 5 C1.67 6.65 1.34 8.3 1 10 C1.66 10 2.32 10 3 10 C2.40153062 14.78775505 1.60949933 19.85840826 -1 24 C-4.1875 25 -4.1875 25 -7 25 C-9.28571429 16.57142857 -9.28571429 16.57142857 -9 12 C-8.67 12.66 -8.34 13.32 -8 14 C-5.47266765 14.65555119 -5.47266765 14.65555119 -3 15 C-2.814375 13.515 -2.814375 13.515 -2.625 12 C-2.04805273 7.91119976 -1.05036346 3.99138113 0 0 Z " fill="#B11A0B" transform="translate(401,164)"/>
<path d="M0 0 C0.66 0 1.32 0 2 0 C2.02505615 0.68626465 2.0501123 1.3725293 2.07592773 2.07958984 C2.19171427 5.17825817 2.31451885 8.27660923 2.4375 11.375 C2.47681641 12.45523438 2.51613281 13.53546875 2.55664062 14.6484375 C2.61948242 16.1953125 2.61948242 16.1953125 2.68359375 17.7734375 C2.72025146 18.72653809 2.75690918 19.67963867 2.79467773 20.66162109 C2.85763465 23.02132349 2.85763465 23.02132349 4 25 C7.3 25 10.6 25 14 25 C14.33 25.99 14.66 26.98 15 28 C11.20839703 28.05786668 7.41690689 28.09355054 3.625 28.125 C2.00464844 28.15013672 2.00464844 28.15013672 0.3515625 28.17578125 C-0.6796875 28.18222656 -1.7109375 28.18867188 -2.7734375 28.1953125 C-4.20308838 28.21102295 -4.20308838 28.21102295 -5.66162109 28.22705078 C-8 28 -8 28 -10 26 C-7.03 25.01 -4.06 24.02 -1 23 C-0.67 15.41 -0.34 7.82 0 0 Z " fill="#B31B0B" transform="translate(428,166)"/>
<path d="M0 0 C1.32 0.33 2.64 0.66 4 1 C4.79198196 3.85113505 5.21481122 5.44762829 4.125 8.25 C3 10 3 10 2 11 C2.99 11 3.98 11 5 11 C5 11.66 5 12.32 5 13 C1.06973224 15.6201785 -2.32625942 15.96025731 -7 16 C-10.5625 15.0625 -10.5625 15.0625 -13 14 C-13.042721 12.33388095 -13.04063832 10.66617115 -13 9 C-12 8 -12 8 -9.5 7.875 C-7 8 -7 8 -6 9 C-3.67171371 9.58610371 -3.67171371 9.58610371 -1 9 C0.98449746 7.15533163 2.39029796 5.20759137 4 3 C2.68 2.34 1.36 1.68 0 1 C0 0.67 0 0.34 0 0 Z " fill="#B94538" transform="translate(269,180)"/>
<path d="M0 0 C0 0.33 0 0.66 0 1 C-1.98 1 -3.96 1 -6 1 C-5.67 2.65 -5.34 4.3 -5 6 C-5.66 6 -6.32 6 -7 6 C-7.33 6.99 -7.66 7.98 -8 9 C-8 8.34 -8 7.68 -8 7 C-11.96 7 -15.92 7 -20 7 C-20.33 5.35 -20.66 3.7 -21 2 C-17.32563814 -1.67436186 -5.24466303 -0.12196891 0 0 Z " fill="#C04E42" transform="translate(435,160)"/>
<path d="M0 0 C0.66 0 1.32 0 2 0 C1.70684909 2.34520724 1.37633599 4.66759204 1 7 C0.88914062 7.71800781 0.77828125 8.43601563 0.6640625 9.17578125 C0.25 11.3125 0.25 11.3125 -1 15 C-3.625 16.5 -3.625 16.5 -6 17 C-6.33 16.67 -6.66 16.34 -7 16 C-6.984375 13.85546875 -6.984375 13.85546875 -6.75 11.1875 C-6.68296875 10.31480469 -6.6159375 9.44210938 -6.546875 8.54296875 C-5.93260763 5.6866255 -4.8964514 4.18703669 -3 2 C-3 2.99 -3 3.98 -3 5 C-2.34 5.33 -1.68 5.66 -1 6 C-0.67 4.02 -0.34 2.04 0 0 Z " fill="#A83127" transform="translate(287,183)"/>
<path d="M0 0 C5.23273331 -0.04935824 10.46533176 -0.08569949 15.69824219 -0.10986328 C17.47919067 -0.11993431 19.26012257 -0.13359185 21.04101562 -0.15087891 C23.59769783 -0.17507913 26.15416185 -0.18647184 28.7109375 -0.1953125 C29.90944839 -0.21079636 29.90944839 -0.21079636 31.13217163 -0.22659302 C33.0895722 -0.22699226 35.04643077 -0.12241069 37 0 C39.3968665 2.3968665 39.28281133 3.07028314 39.4140625 6.3515625 C39.47207031 7.62773437 39.47207031 7.62773437 39.53125 8.9296875 C39.5621875 9.81914062 39.593125 10.70859375 39.625 11.625 C39.68300781 12.97078125 39.68300781 12.97078125 39.7421875 14.34375 C39.83659357 16.5622927 39.92216748 18.78082403 40 21 C39.67 21 39.34 21 39 21 C38.505 23.475 38.505 23.475 38 26 C37.67 26 37.34 26 37 26 C36.86309156 18.27227893 37.24833087 10.69118596 38 3 C29.80371106 2.02539021 21.62104758 1.69651591 13.375 1.4375 C12.08464844 1.39431641 10.79429687 1.35113281 9.46484375 1.30664062 C6.30998067 1.20147852 3.15505105 1.09933396 0 1 C0 0.67 0 0.34 0 0 Z " fill="#7A6E68" transform="translate(340,154)"/>
<path d="M0 0 C1.4540625 0.0309375 1.4540625 0.0309375 2.9375 0.0625 C3.99478087 6.92233809 4.05389843 13.63033224 4 20.5625 C3.99548828 21.67109375 3.99097656 22.7796875 3.98632812 23.921875 C3.97463158 26.63547399 3.95824086 29.34895761 3.9375 32.0625 C2.2875 31.7325 0.6375 31.4025 -1.0625 31.0625 C-0.7325 30.4025 -0.4025 29.7425 -0.0625 29.0625 C0.5975 29.0625 1.2575 29.0625 1.9375 29.0625 C1.9375 19.8225 1.9375 10.5825 1.9375 1.0625 C0.9475 1.3925 -0.0425 1.7225 -1.0625 2.0625 C-1.3925 4.0425 -1.7225 6.0225 -2.0625 8.0625 C-2.3925 8.0625 -2.7225 8.0625 -3.0625 8.0625 C-3.44313221 5.7364143 -3.77519945 3.40194736 -4.0625 1.0625 C-3.0625 0.0625 -3.0625 0.0625 0 0 Z " fill="#AF5A56" transform="translate(334.0625,161.9375)"/>
<path d="M0 0 C2.475 0.99 2.475 0.99 5 2 C5 5.63 5 9.26 5 13 C3.68 12.67 2.36 12.34 1 12 C1 12.66 1 13.32 1 14 C-0.32 14.33 -1.64 14.66 -3 15 C-2.74438677 12.6568787 -2.40729228 10.32156597 -2 8 C-1.34 7.67 -0.68 7.34 0 7 C-0.66 6.67 -1.32 6.34 -2 6 C-2 4.35 -2 2.7 -2 1 C-1.34 0.67 -0.68 0.34 0 0 Z " fill="#B41E0C" transform="translate(404,160)"/>
<path d="M0 0 C0.598125 0.226875 1.19625 0.45375 1.8125 0.6875 C1.4825 1.3475 1.1525 2.0075 0.8125 2.6875 C2.1325 2.3575 3.4525 2.0275 4.8125 1.6875 C5.1425 3.0075 5.4725 4.3275 5.8125 5.6875 C4.1625 5.3575 2.5125 5.0275 0.8125 4.6875 C0.8125 5.3475 0.8125 6.0075 0.8125 6.6875 C-0.1775 6.6875 -1.1675 6.6875 -2.1875 6.6875 C-2.125625 7.8321875 -2.125625 7.8321875 -2.0625 9 C-2.1875 11.6875 -2.1875 11.6875 -4.1875 14.6875 C-4.8475 14.6875 -5.5075 14.6875 -6.1875 14.6875 C-6.10034983 12.74916004 -5.99217036 10.8117571 -5.875 8.875 C-5.81699219 7.79605469 -5.75898438 6.71710938 -5.69921875 5.60546875 C-5.1875 2.6875 -5.1875 2.6875 -3.78125 0.78125 C-2.1875 -0.3125 -2.1875 -0.3125 0 0 Z " fill="#B62E1D" transform="translate(461.1875,163.3125)"/>
<path d="M0 0 C0.66 0 1.32 0 2 0 C2 0.66 2 1.32 2 2 C2.99 2 3.98 2 5 2 C5.12375 3.11375 5.2475 4.2275 5.375 5.375 C5.6465813 9.03103677 5.6465813 9.03103677 8 11 C6.8125 12.5 6.8125 12.5 5 14 C2.38671875 14.09375 2.38671875 14.09375 0 14 C-0.19393875 11.85473901 -0.37998676 9.70876323 -0.5625 7.5625 C-0.71912109 5.77005859 -0.71912109 5.77005859 -0.87890625 3.94140625 C-0.91886719 2.97074219 -0.95882813 2.00007812 -1 1 C-0.67 0.67 -0.34 0.34 0 0 Z " fill="#B63C35" transform="translate(298,167)"/>
<path d="M0 0 C0.99 0.33 1.98 0.66 3 1 C2.67 2.65 2.34 4.3 2 6 C-1.20782086 6.95376567 -4.08187396 7.11621181 -7.421875 7.09765625 C-8.44667969 7.09443359 -9.47148437 7.09121094 -10.52734375 7.08789062 C-11.59082031 7.07951172 -12.65429688 7.07113281 -13.75 7.0625 C-14.82894531 7.05798828 -15.90789062 7.05347656 -17.01953125 7.04882812 C-19.67974383 7.03705727 -22.33984365 7.02061399 -25 7 C-25.38218767 5.34385343 -25.71395102 3.67542976 -26 2 C-25 1 -25 1 -21.4375 0.9375 C-20.303125 0.958125 -19.16875 0.97875 -18 1 C-18 1.33 -18 1.66 -18 2 C-19.98 2 -21.96 2 -24 2 C-23.67 2.66 -23.34 3.32 -23 4 C-15.08 4.33 -7.16 4.66 1 5 C0.67 3.35 0.34 1.7 0 0 Z " fill="#BB6558" transform="translate(215,189)"/>
<path d="M0 0 C2.01171875 2.90625 2.01171875 2.90625 3.6875 6.5 C4.72697731 8.69843476 5.81974378 10.87382415 7 13 C7.99 13.33 8.98 13.66 10 14 C10.33 14.99 10.66 15.98 11 17 C10.34 17 9.68 17 9 17 C9 16.34 9 15.68 9 15 C6.525 14.505 6.525 14.505 4 14 C3.67 12.35 3.34 10.7 3 9 C1.35 9.33 -0.3 9.66 -2 10 C-2 9.34 -2 8.68 -2 8 C-1.34 7.67 -0.68 7.34 0 7 C0 6.01 0 5.02 0 4 C-1.32 4.33 -2.64 4.66 -4 5 C-4 4.34 -4 3.68 -4 3 C-5.65 3 -7.3 3 -9 3 C-8.67 2.01 -8.34 1.02 -8 0 C-4.9489349 -1.52553255 -3.2154832 -1.00306897 0 0 Z " fill="#B94B43" transform="translate(466,161)"/>
<path d="M0 0 C1.2065625 0.0309375 1.2065625 0.0309375 2.4375 0.0625 C2.7675 2.3725 3.0975 4.6825 3.4375 7.0625 C2.1175 5.7425 0.7975 4.4225 -0.5625 3.0625 C-1.94022835 7.19568505 -1.5333718 11.02373058 -1.40234375 15.34765625 C-1.5625 18.0625 -1.5625 18.0625 -3.5625 20.0625 C-4.8825 19.7325 -6.2025 19.4025 -7.5625 19.0625 C-7.5625 15.4325 -7.5625 11.8025 -7.5625 8.0625 C-7.2325 8.0625 -6.9025 8.0625 -6.5625 8.0625 C-6.5625 11.3625 -6.5625 14.6625 -6.5625 18.0625 C-5.5725 18.0625 -4.5825 18.0625 -3.5625 18.0625 C-3.57410156 16.84691406 -3.58570313 15.63132813 -3.59765625 14.37890625 C-3.60703278 12.79427236 -3.61613313 11.20963682 -3.625 9.625 C-3.63337891 8.82255859 -3.64175781 8.02011719 -3.65039062 7.19335938 C-3.6590143 5.14954779 -3.6147815 3.10566098 -3.5625 1.0625 C-2.5625 0.0625 -2.5625 0.0625 0 0 Z " fill="#BF5853" transform="translate(320.5625,173.9375)"/>
<path d="M0 0 C0.33 0 0.66 0 1 0 C1.14510162 3.27036728 1.23399373 6.53991007 1.3125 9.8125 C1.3753418 11.2056543 1.3753418 11.2056543 1.43945312 12.62695312 C1.48541769 15.17338981 1.47060521 17.49617228 1 20 C-1.28125 22.03125 -1.28125 22.03125 -4 23 C-4.66644531 23.31324219 -5.33289063 23.62648437 -6.01953125 23.94921875 C-7.6796875 24.6328125 -9.33984375 25.31640625 -11 26 C-10.67 24.35 -10.34 22.7 -10 21 C-6.04 20.505 -6.04 20.505 -2 20 C-1.97494385 19.42967041 -1.9498877 18.85934082 -1.92407227 18.27172852 C-1.80843451 15.70173843 -1.68556376 13.13214473 -1.5625 10.5625 C-1.52318359 9.66466797 -1.48386719 8.76683594 -1.44335938 7.84179688 C-1.40146484 6.98779297 -1.35957031 6.13378906 -1.31640625 5.25390625 C-1.26141968 4.06776733 -1.26141968 4.06776733 -1.20532227 2.85766602 C-1 1 -1 1 0 0 Z " fill="#BE5F5B" transform="translate(427,169)"/>
<path d="M0 0 C-0.33 0.66 -0.66 1.32 -1 2 C4.445 1.505 4.445 1.505 10 1 C10 1.99 10 2.98 10 4 C2.74 4 -4.52 4 -12 4 C-12.33 3.01 -12.66 2.02 -13 1 C-8.60563789 0.14256349 -4.47427924 -0.08948558 0 0 Z " fill="#B01B0A" transform="translate(204,190)"/>
<path d="M0 0 C4.29619614 3.95702276 6.86045363 6.86020672 7.125 12.8125 C7.08375 13.534375 7.0425 14.25625 7 15 C5.25 14.9375 5.25 14.9375 3 14 C-0.05280755 9.8745844 -1.07874825 8.24028498 -0.75 3.0625 C-0.5025 2.051875 -0.255 1.04125 0 0 Z " fill="#B83D34" transform="translate(325,175)"/>
<path d="M0 0 C0.90492188 0.02320313 1.80984375 0.04640625 2.7421875 0.0703125 C4.10730469 0.09738281 4.10730469 0.09738281 5.5 0.125 C6.19867188 0.14820313 6.89734375 0.17140625 7.6171875 0.1953125 C7.6171875 0.5253125 7.6171875 0.8553125 7.6171875 1.1953125 C6.66005859 1.26878906 6.66005859 1.26878906 5.68359375 1.34375 C4.85730469 1.41851562 4.03101563 1.49328125 3.1796875 1.5703125 C2.35597656 1.63992187 1.53226563 1.70953125 0.68359375 1.78125 C0.00167969 1.91789063 -0.68023437 2.05453125 -1.3828125 2.1953125 C-1.7128125 2.8553125 -2.0428125 3.5153125 -2.3828125 4.1953125 C-1.61195313 4.25589844 -0.84109375 4.31648437 -0.046875 4.37890625 C1.45746094 4.50458984 1.45746094 4.50458984 2.9921875 4.6328125 C4.48878906 4.75462891 4.48878906 4.75462891 6.015625 4.87890625 C8.6171875 5.1953125 8.6171875 5.1953125 10.6171875 6.1953125 C10.2871875 11.4753125 9.9571875 16.7553125 9.6171875 22.1953125 C9.2871875 22.1953125 8.9571875 22.1953125 8.6171875 22.1953125 C8.2871875 17.2453125 7.9571875 12.2953125 7.6171875 7.1953125 C4.3171875 7.1953125 1.0171875 7.1953125 -2.3828125 7.1953125 C-3.0428125 5.5453125 -3.7028125 3.8953125 -4.3828125 2.1953125 C-2.3828125 0.1953125 -2.3828125 0.1953125 0 0 Z " fill="#C2655F" transform="translate(191.3828125,160.8046875)"/>
<path d="M0 0 C-0.33 7.59 -0.66 15.18 -1 23 C-1.66 23 -2.32 23 -3 23 C-3 16.4 -3 9.8 -3 3 C-3.66 2.67 -4.32 2.34 -5 2 C-5.33 2.66 -5.66 3.32 -6 4 C-6 2.68 -6 1.36 -6 0 C-4 -1 -4 -1 0 0 Z " fill="#BD6F67" transform="translate(249,152)"/>
<path d="M0 0 C1.29901921 8.04927976 2.33853295 15.83759432 2 24 C1.67 24 1.34 24 1 24 C-0.25841946 17.25846717 -1.26404456 10.86515862 -1 4 C-3.97 3.505 -3.97 3.505 -7 3 C-6.67 2.01 -6.34 1.02 -6 0 C-3.50907189 -1.24546405 -2.58919267 -0.7767578 0 0 Z " fill="#BA574B" transform="translate(410,158)"/>
<path d="M0 0 C3.875 1.75 3.875 1.75 5 4 C4.01 4.33 3.02 4.66 2 5 C1.67 6.65 1.34 8.3 1 10 C1.66 10 2.32 10 3 10 C2.5020163 13.73487777 2.12508244 15.81237635 0 19 C0 16.69 0 14.38 0 12 C-0.66 12 -1.32 12 -2 12 C-2.33 12.99 -2.66 13.98 -3 15 C-2.35812082 9.86496656 -1.31727753 5.0056546 0 0 Z " fill="#C25045" transform="translate(401,164)"/>
<path d="M0 0 C0.99 0 1.98 0 3 0 C3.02686553 1.97909398 3.04633375 3.95828971 3.0625 5.9375 C3.07410156 7.03964844 3.08570313 8.14179688 3.09765625 9.27734375 C3 12 3 12 2 13 C2.99 13.66 3.98 14.32 5 15 C3.35 15 1.7 15 0 15 C-0.75612577 9.76528314 -1.2063366 5.22745859 0 0 Z " fill="#C14943" transform="translate(224,185)"/>
<path d="M0 0 C0.042721 1.66611905 0.04063832 3.33382885 0 5 C-0.33 5.33 -0.66 5.66 -1 6 C-2.69141656 5.91036938 -4.37959602 5.75422324 -6.0625 5.5625 C-7.44115234 5.40974609 -7.44115234 5.40974609 -8.84765625 5.25390625 C-9.55792969 5.17011719 -10.26820313 5.08632812 -11 5 C-10.67 4.34 -10.34 3.68 -10 3 C-9.01 3 -8.02 3 -7 3 C-7 2.01 -7 1.02 -7 0 C-3.98968256 -0.93423645 -3.13349732 -1.04449911 0 0 Z " fill="#B14032" transform="translate(445,159)"/>
<path d="M0 0 C0.99 0 1.98 0 3 0 C3 3.63 3 7.26 3 11 C2.34 10.67 1.68 10.34 1 10 C0.67 11.98 0.34 13.96 0 16 C-2.11672187 12.58567085 -2.12506778 10.26115378 -1.6875 6.3125 C-1.58824219 5.33925781 -1.48898437 4.36601562 -1.38671875 3.36328125 C-1 1 -1 1 0 0 Z " fill="#B0271C" transform="translate(333,163)"/>
<path d="M0 0 C0.66 0 1.32 0 2 0 C2.66 2.97 3.32 5.94 4 9 C5.49743119 7.50256881 5.33202693 6.01175761 5.5625 3.9375 C5.706875 2.638125 5.85125 1.33875 6 0 C6.33 0 6.66 0 7 0 C7.19401633 1.81181405 7.38004375 3.62448532 7.5625 5.4375 C7.66691406 6.44683594 7.77132813 7.45617187 7.87890625 8.49609375 C7.93884766 9.73552734 7.93884766 9.73552734 8 11 C7 12 7 12 4.5 12.125 C2 12 2 12 1 11 C0.76636119 9.15108054 0.58696365 7.29511969 0.4375 5.4375 C0.35371094 4.42558594 0.26992188 3.41367188 0.18359375 2.37109375 C0.12300781 1.58863281 0.06242187 0.80617187 0 0 Z " fill="#C06C62" transform="translate(468,185)"/>
<path d="M0 0 C0.33 0 0.66 0 1 0 C1.89604368 6.04829486 2.11269443 11.8894576 2 18 C1.34 18 0.68 18 0 18 C-0.33 18.99 -0.66 19.98 -1 21 C-1.99 20.34 -2.98 19.68 -4 19 C-3.525625 18.278125 -3.05125 17.55625 -2.5625 16.8125 C0.06850117 11.68701187 -0.24258815 5.63808327 0 0 Z " fill="#B42F25" transform="translate(201,170)"/>
<path d="M0 0 C1.65 0.33 3.3 0.66 5 1 C7.28571429 9.42857143 7.28571429 9.42857143 7 14 C6.34 14 5.68 14 5 14 C4.71125 13.21625 4.4225 12.4325 4.125 11.625 C3.15087746 8.90328368 3.15087746 8.90328368 1 7 C1.66 5.35 2.32 3.7 3 2 C1.68 2.33 0.36 2.66 -1 3 C-0.67 2.01 -0.34 1.02 0 0 Z " fill="#BA473B" transform="translate(390,162)"/>
<path d="M0 0 C0.99 0 1.98 0 3 0 C3 5.28 3 10.56 3 16 C2.01 15.67 1.02 15.34 0 15 C0 10.05 0 5.1 0 0 Z " fill="#B61E11" transform="translate(227,162)"/>
<path d="M0 0 C0.33 1.32 0.66 2.64 1 4 C-0.32 4.33 -1.64 4.66 -3 5 C-3 7.31 -3 9.62 -3 12 C-3.66 12 -4.32 12 -5 12 C-5.33 10.35 -5.66 8.7 -6 7 C-6.66 7.66 -7.32 8.32 -8 9 C-8.33 6.69 -8.66 4.38 -9 2 C-6.03 2.33 -3.06 2.66 0 3 C0 2.01 0 1.02 0 0 Z " fill="#AF1F11" transform="translate(250,178)"/>
<path d="M0 0 C0.66 1.32 1.32 2.64 2 4 C1.34 4.66 0.68 5.32 0 6 C-0.99 6 -1.98 6 -3 6 C-3 5.34 -3 4.68 -3 4 C-6.3 4 -9.6 4 -13 4 C-13 5.65 -13 7.3 -13 9 C-13.33 9 -13.66 9 -14 9 C-14 7.02 -14 5.04 -14 3 C-11.23547967 1.61773984 -8.9538637 1.90474613 -5.875 1.9375 C-4.77929688 1.94652344 -3.68359375 1.95554688 -2.5546875 1.96484375 C-1.71164062 1.97644531 -0.86859375 1.98804688 0 2 C0 1.34 0 0.68 0 0 Z " fill="#C25348" transform="translate(470,179)"/>
<path d="M0 0 C0.66 0.33 1.32 0.66 2 1 C1.67 3.31 1.34 5.62 1 8 C1.66 8 2.32 8 3 8 C4.05566977 11.16700931 3.97926374 11.96428241 3 15 C2.67 15.66 2.34 16.32 2 17 C1.34 17 0.68 17 0 17 C-0.19386492 14.35448944 -0.38038267 11.70882217 -0.5625 9.0625 C-0.61857422 8.30775391 -0.67464844 7.55300781 -0.73242188 6.77539062 C-0.86176157 4.85254042 -0.93516912 2.92610452 -1 1 C-0.67 0.67 -0.34 0.34 0 0 Z " fill="#A01D0E" transform="translate(380,164)"/>
<path d="M0 0 C1.125 3.75 1.125 3.75 0 6 C-0.27024708 8.29924497 -0.44497841 10.59801487 -0.62109375 12.90625 C-1 15 -1 15 -3 17 C-5.125 16.625 -5.125 16.625 -7 16 C-4 14 -4 14 -2 14 C-2.25561323 11.6568787 -2.59270772 9.32156597 -3 7 C-3.66 6.67 -4.32 6.34 -5 6 C-5.33 6.99 -5.66 7.98 -6 9 C-5.67 7.35 -5.34 5.7 -5 4 C-4.01 3.67 -3.02 3.34 -2 3 C-1.34 2.01 -0.68 1.02 0 0 Z " fill="#BB4437" transform="translate(389,177)"/>
<path d="M0 0 C1.08667969 0.02707031 2.17335938 0.05414063 3.29296875 0.08203125 C4.54013672 0.13423828 4.54013672 0.13423828 5.8125 0.1875 C6.9375 3.9375 6.9375 3.9375 5.8125 6.1875 C2.5125 6.1875 -0.7875 6.1875 -4.1875 6.1875 C-4.1875 5.8575 -4.1875 5.5275 -4.1875 5.1875 C-1.5475 5.1875 1.0925 5.1875 3.8125 5.1875 C3.8125 3.8675 3.8125 2.5475 3.8125 1.1875 C1.1725 1.1875 -1.4675 1.1875 -4.1875 1.1875 C-4.1875 1.8475 -4.1875 2.5075 -4.1875 3.1875 C-5.8375 3.1875 -7.4875 3.1875 -9.1875 3.1875 C-6.54246503 -0.34849411 -4.24021315 -0.13678107 0 0 Z " fill="#CA6F65" transform="translate(270.1875,157.8125)"/>
<path d="M0 0 C1.03159626 3.09478879 0.97482862 4.52631393 0.5625 7.6875 C0.46066406 8.49574219 0.35882813 9.30398437 0.25390625 10.13671875 C0.17011719 10.75160156 0.08632813 11.36648437 0 12 C0.66 11.01 1.32 10.02 2 9 C2.66 9 3.32 9 4 9 C3.25 11.4375 3.25 11.4375 2 14 C-0.0625 14.875 -0.0625 14.875 -2 15 C-2.33 14.67 -2.66 14.34 -3 14 C-2.94921875 11.85546875 -2.94921875 11.85546875 -2.6875 9.1875 C-2.60886719 8.31480469 -2.53023438 7.44210938 -2.44921875 6.54296875 C-2.00244976 4.01386775 -1.26661261 2.21786452 0 0 Z " fill="#B85145" transform="translate(283,185)"/>
<path d="M0 0 C0.33 0.99 0.66 1.98 1 3 C-2 4 -2 4 -3 4 C-3 4.66 -3 5.32 -3 6 C-3.99 6.33 -4.98 6.66 -6 7 C-6.33 6.34 -6.66 5.68 -7 5 C-7.99 4.67 -8.98 4.34 -10 4 C-10 3.01 -10 2.02 -10 1 C-6.61981469 -0.04005702 -3.5219721 -0.08004482 0 0 Z " fill="#B51609" transform="translate(229,179)"/>
<path d="M0 0 C2.31 0.66 4.62 1.32 7 2 C7 2.33 7 2.66 7 3 C5.35 3.33 3.7 3.66 2 4 C3.98 4.99 5.96 5.98 8 7 C4.29218328 8.23593891 3.32489747 7.5678132 -0.1875 6.0625 C-1.08855469 5.68222656 -1.98960937 5.30195313 -2.91796875 4.91015625 C-3.94857422 4.45962891 -3.94857422 4.45962891 -5 4 C-4.0409375 3.8453125 -4.0409375 3.8453125 -3.0625 3.6875 C-2.381875 3.460625 -1.70125 3.23375 -1 3 C-0.67 2.01 -0.34 1.02 0 0 Z " fill="#C04D44" transform="translate(261,172)"/>
<path d="M0 0 C1.98 0.99 1.98 0.99 4 2 C4.08096803 3.45742463 4.13917774 4.91612807 4.1875 6.375 C4.22230469 7.18710938 4.25710938 7.99921875 4.29296875 8.8359375 C4.19628906 9.55007812 4.09960938 10.26421875 4 11 C3.01 11.66 2.02 12.32 1 13 C-0.00496852 9.98509443 -0.10335303 7.95818308 -0.0625 4.8125 C-0.05347656 3.91144531 -0.04445313 3.01039063 -0.03515625 2.08203125 C-0.02355469 1.39496094 -0.01195312 0.70789063 0 0 Z " fill="#B02313" transform="translate(470,182)"/>
<path d="M0 0 C1.9375 0.375 1.9375 0.375 4 1 C5.60725635 4.21451269 5.05748185 7.43612536 5 11 C4.01 11 3.02 11 2 11 C0.80712589 7.12315913 0 4.08378077 0 0 Z " fill="#AE2111" transform="translate(301,183)"/>
<path d="M0 0 C0.33 0 0.66 0 1 0 C1 1.65 1 3.3 1 5 C2.98 5 4.96 5 7 5 C6.67 6.32 6.34 7.64 6 9 C6.66 9.33 7.32 9.66 8 10 C5.04335481 11.4783226 2.25770263 11.06032783 -1 11 C-0.01 10.01 0.98 9.02 2 8 C1.34 7.34 0.68 6.68 0 6 C-0.125 2.875 -0.125 2.875 0 0 Z " fill="#C45248" transform="translate(292,172)"/>
<path d="M0 0 C1.875 0.125 1.875 0.125 4 1 C5.88698167 5.05701058 6.21117043 8.56542098 6 13 C5.34 13 4.68 13 4 13 C4 12.34 4 11.68 4 11 C3.34 11 2.68 11 2 11 C2 8.69 2 6.38 2 4 C1.34 4 0.68 4 0 4 C0 2.68 0 1.36 0 0 Z " fill="#BC5445" transform="translate(379,161)"/>
<path d="M0 0 C3.17535891 1.53956795 4.34817194 3.99992589 6.0625 7 C6.0625 7.66 6.0625 8.32 6.0625 9 C5.4025 9 4.7425 9 4.0625 9 C4.0625 8.34 4.0625 7.68 4.0625 7 C2.7425 7.99 1.4225 8.98 0.0625 10 C-0.2675 9.34 -0.5975 8.68 -0.9375 8 C-1.9275 9.485 -1.9275 9.485 -2.9375 11 C-2.9375 9.35 -2.9375 7.7 -2.9375 6 C-1.6175 6 -0.2975 6 1.0625 6 C1.0625 5.01 1.0625 4.02 1.0625 3 C-1.9075 2.505 -1.9075 2.505 -4.9375 2 C-1.9375 0 -1.9375 0 0 0 Z " fill="#C56256" transform="translate(295.9375,160)"/>
<path d="M0 0 C1.485 0.99 1.485 0.99 3 2 C6.12521833 2.16699232 6.12521833 2.16699232 9 2 C8.67 2.99 8.34 3.98 8 5 C7.01 5 6.02 5 5 5 C5 5.66 5 6.32 5 7 C6.32 7.33 7.64 7.66 9 8 C8.38125 8.12375 7.7625 8.2475 7.125 8.375 C4.80879168 8.87197356 4.80879168 8.87197356 3 11 C1.72746564 7.35206816 0.67170806 3.8063457 0 0 Z " fill="#BD3C37" transform="translate(274,177)"/>
<path d="M0 0 C1.2380014 3.57644848 0.74926071 6.33694766 0 10 C-0.804375 10.12375 -1.60875 10.2475 -2.4375 10.375 C-3.283125 10.58125 -4.12875 10.7875 -5 11 C-5.33 11.66 -5.66 12.32 -6 13 C-6.99 13 -7.98 13 -9 13 C-9 12.34 -9 11.68 -9 11 C-7.35 10.67 -5.7 10.34 -4 10 C-3.7834375 8.824375 -3.7834375 8.824375 -3.5625 7.625 C-3 5 -3 5 -2 3 C-1.34 3 -0.68 3 0 3 C0 2.01 0 1.02 0 0 Z " fill="#AC210F" transform="translate(292,168)"/>
<path d="M0 0 C0.15384615 9.07692308 0.15384615 9.07692308 -1 13 C-1.66 13.66 -2.32 14.32 -3 15 C-3 14.34 -3 13.68 -3 13 C-3.66 12.67 -4.32 12.34 -5 12 C-4.855625 11.29875 -4.71125 10.5975 -4.5625 9.875 C-4.16528586 7.84479439 -3.83848924 5.8002058 -3.5625 3.75 C-3.376875 2.8425 -3.19125 1.935 -3 1 C-1 0 -1 0 0 0 Z " fill="#BB170D" transform="translate(335,178)"/>
<path d="M0 0 C1.2065625 0.0309375 1.2065625 0.0309375 2.4375 0.0625 C2.1075 0.7225 1.7775 1.3825 1.4375 2.0625 C0.4475 2.0625 -0.5425 2.0625 -1.5625 2.0625 C-1.5625 3.3825 -1.5625 4.7025 -1.5625 6.0625 C2.7275 6.0625 7.0175 6.0625 11.4375 6.0625 C11.4375 6.3925 11.4375 6.7225 11.4375 7.0625 C5.87592552 7.97707003 1.761835 8.38336397 -3.5625 6.0625 C-3.605221 4.39638095 -3.60313832 2.72867115 -3.5625 1.0625 C-2.5625 0.0625 -2.5625 0.0625 0 0 Z " fill="#C97B75" transform="translate(259.5625,187.9375)"/>
<path d="M0 0 C2.64 0.33 5.28 0.66 8 1 C8 1.66 8 2.32 8 3 C9.32 3 10.64 3 12 3 C12 3.66 12 4.32 12 5 C10.20793453 4.85915204 8.41635083 4.71216299 6.625 4.5625 C5.62726563 4.48128906 4.62953125 4.40007812 3.6015625 4.31640625 C1 4 1 4 -1 3 C-0.67 2.01 -0.34 1.02 0 0 Z " fill="#B32517" transform="translate(190,162)"/>
<path d="M0 0 C0.99 1.485 0.99 1.485 2 3 C4.05925139 3.72382467 4.05925139 3.72382467 6 4 C6.625 5.875 6.625 5.875 7 8 C6.34 8.66 5.68 9.32 5 10 C4.30251417 11.31747324 3.63040043 12.64914193 3 14 C0.88838269 4.58997722 0.88838269 4.58997722 0 0 Z " fill="#BC3A31" transform="translate(469,172)"/>
<path d="M0 0 C1.10153804 3.30461413 0.95317786 3.98668832 -0.1875 7.125 C-0.42855469 7.82882813 -0.66960937 8.53265625 -0.91796875 9.2578125 C-2 11 -2 11 -3.98828125 11.8046875 C-6 12 -6 12 -8 11 C-8 9.35 -8 7.7 -8 6 C-7.67 7.32 -7.34 8.64 -7 10 C-6.01 9.67 -5.02 9.34 -4 9 C-3.26919734 7.02253397 -2.60578253 5.01927511 -2 3 C-1.34 2.01 -0.68 1.02 0 0 Z " fill="#B9685F" transform="translate(455,188)"/>
<path d="M0 0 C0.66 0.33 1.32 0.66 2 1 C1.67 4.63 1.34 8.26 1 12 C0.01 12 -0.98 12 -2 12 C-2.17835515 7.45194365 -1.99785435 4.1205746 0 0 Z " fill="#B41C0C" transform="translate(243,184)"/>
<path d="M0 0 C1.88733345 2.33669855 3.21192152 4.45033322 4.5 7.1875 C5.74403378 10.29704483 5.74403378 10.29704483 9 11 C9.33 11.99 9.66 12.98 10 14 C9.34 14 8.68 14 8 14 C8 13.34 8 12.68 8 12 C6.35 11.67 4.7 11.34 3 11 C2.67 9.35 2.34 7.7 2 6 C0.35 6.33 -1.3 6.66 -3 7 C-3 6.34 -3 5.68 -3 5 C-2.01 5 -1.02 5 0 5 C0 3.35 0 1.7 0 0 Z " fill="#C0705F" transform="translate(467,164)"/>
<path d="M0 0 C4.29 0 8.58 0 13 0 C8.46532336 3.40100748 7.2087218 3.33913116 1.75 3.1875 C0.48671875 3.16042969 -0.7765625 3.13335937 -2.078125 3.10546875 C-3.04234375 3.07066406 -4.0065625 3.03585938 -5 3 C-5 2.67 -5 2.34 -5 2 C-3.35 2 -1.7 2 0 2 C0 1.34 0 0.68 0 0 Z " fill="#BA4F46" transform="translate(199,160)"/>
<path d="M0 0 C2 3 2 3 2 7 C2.99 7 3.98 7 5 7 C5 5.02 5 3.04 5 1 C5.33 1 5.66 1 6 1 C7.125 7.75 7.125 7.75 6 10 C4.35 9.67 2.7 9.34 1 9 C0.67 6.03 0.34 3.06 0 0 Z " fill="#C07164" transform="translate(301,187)"/>
<path d="M0 0 C0.66 0.33 1.32 0.66 2 1 C2 1.66 2 2.32 2 3 C1.01 3 0.02 3 -1 3 C-1 5.31 -1 7.62 -1 10 C-1.99 10.33 -2.98 10.66 -4 11 C-4.8125 7.75 -4.8125 7.75 -5 4 C-2.5625 1.5625 -2.5625 1.5625 0 0 Z " fill="#B01E0D" transform="translate(259,162)"/>
<path d="M0 0 C0.99 0 1.98 0 3 0 C3 0.99 3 1.98 3 3 C4.32 3.33 5.64 3.66 7 4 C5.8125 5.5 5.8125 5.5 4 7 C1.3125 7.1875 1.3125 7.1875 -1 7 C-0.67 4.69 -0.34 2.38 0 0 Z " fill="#B21908" transform="translate(299,174)"/>
<path d="M0 0 C0.33 2.64 0.66 5.28 1 8 C-0.32 8.99 -1.64 9.98 -3 11 C-3 7.7 -3 4.4 -3 1 C-1 0 -1 0 0 0 Z " fill="#AF1C0D" transform="translate(205,167)"/>
<path d="M0 0 C0.33 2.31 0.66 4.62 1 7 C-0.65 6.67 -2.3 6.34 -4 6 C-4 4.35 -4 2.7 -4 1 C-2 0 -2 0 0 0 Z " fill="#B65047" transform="translate(449,179)"/>
<path d="M0 0 C0.33 0.99 0.66 1.98 1 3 C-1.8125 3.625 -1.8125 3.625 -5 4 C-8 2 -8 2 -9 0 C-2.25 -1.125 -2.25 -1.125 0 0 Z " fill="#A91F0C" transform="translate(214,161)"/>
<path d="M0 0 C2 2 2 2 2 6 C2.99 6 3.98 6 5 6 C5 6.99 5 7.98 5 9 C3.35 8.67 1.7 8.34 0 8 C-1.125 2.25 -1.125 2.25 0 0 Z " fill="#AE1F0B" transform="translate(393,170)"/>
<path d="M0 0 C2.4375 0.1875 2.4375 0.1875 5 1 C6.3125 3.0625 6.3125 3.0625 7 5 C6.01 4.67 5.02 4.34 4 4 C4 3.34 4 2.68 4 2 C3.01 2 2.02 2 1 2 C1 4.31 1 6.62 1 9 C-1.14809171 5.77786243 -1.29386153 4.72224599 -1 1 C-0.67 0.67 -0.34 0.34 0 0 Z " fill="#B55D56" transform="translate(314,165)"/>
<path d="M0 0 C2 2 2 2 2.1953125 3.9453125 C2.13020833 5.96354167 2.06510417 7.98177083 2 10 C4.97 10.495 4.97 10.495 8 11 C7.34 11.66 6.68 12.32 6 13 C4.68 13 3.36 13 2 13 C-0.28571429 4.57142857 -0.28571429 4.57142857 0 0 Z " fill="#C9796F" transform="translate(392,176)"/>
<path d="M0 0 C0 1.65 0 3.3 0 5 C-2.9375 4.1875 -2.9375 4.1875 -6 3 C-6.33 2.01 -6.66 1.02 -7 0 C-3.86650268 -1.04449911 -3.01031744 -0.93423645 0 0 Z " fill="#BE645F" transform="translate(219,159)"/>
<path d="M0 0 C3.63 0 7.26 0 11 0 C11 0.99 11 1.98 11 3 C7.04 2.67 3.08 2.34 -1 2 C-0.67 1.34 -0.34 0.68 0 0 Z " fill="#B34E43" transform="translate(433,189)"/>
<path d="M0 0 C0.99 0.33 1.98 0.66 3 1 C2.01 1.495 2.01 1.495 1 2 C1.061875 3.1446875 1.061875 3.1446875 1.125 4.3125 C1 7 1 7 -1 10 C-1.66 10 -2.32 10 -3 10 C-3.20086443 6.28400809 -3.1519437 5.22791555 -1 2 C-0.67 1.34 -0.34 0.68 0 0 Z " fill="#B01E0D" transform="translate(458,168)"/>
<path d="M0 0 C0.33 0.66 0.66 1.32 1 2 C0.0925 2.28875 -0.815 2.5775 -1.75 2.875 C-4.32202908 3.76531776 -6.61346766 4.71494413 -9 6 C-8.67 4.35 -8.34 2.7 -8 1 C-5.36 0.67 -2.72 0.34 0 0 Z " fill="#B44C3E" transform="translate(425,189)"/>
<path d="M0 0 C1.32 1.32 2.64 2.64 4 4 C4 2.68 4 1.36 4 0 C4.66 0 5.32 0 6 0 C6 1.98 6 3.96 6 6 C4.33388095 6.042721 2.66617115 6.04063832 1 6 C0 5 0 5 -0.0625 2.4375 C-0.041875 1.633125 -0.02125 0.82875 0 0 Z " fill="#B25046" transform="translate(408,186)"/>
<path d="M0 0 C1.32 1.32 2.64 2.64 4 4 C2.68 5.65 1.36 7.3 0 9 C-0.84454356 5.62182575 -1.10844919 3.32534757 0 0 Z " fill="#B01B08" transform="translate(386,173)"/>
<path d="M0 0 C1.65 1.32 3.3 2.64 5 4 C4.67 5.32 4.34 6.64 4 8 C3.34 8 2.68 8 2 8 C1.67 8.66 1.34 9.32 1 10 C1.20625 9.38125 1.4125 8.7625 1.625 8.125 C1.74875 7.42375 1.8725 6.7225 2 6 C1.34 5.34 0.68 4.68 0 4 C0 2.68 0 1.36 0 0 Z " fill="#C2623F" transform="translate(303,172)"/>
<path d="M0 0 C3 0 3 0 4.6875 1.375 C6 3 6 3 6 5 C5.01 5 4.02 5 3 5 C2.67 5.33 2.34 5.66 2 6 C1.01 6.495 1.01 6.495 0 7 C0 4.69 0 2.38 0 0 Z " fill="#B11C0B" transform="translate(315,167)"/>
<path d="M0 0 C-0.33 1.32 -0.66 2.64 -1 4 C-3.97 3.505 -3.97 3.505 -7 3 C-6.67 2.01 -6.34 1.02 -6 0 C-3.50907189 -1.24546405 -2.58919267 -0.7767578 0 0 Z " fill="#B24D47" transform="translate(410,158)"/>
<path d="M0 0 C0.33 0 0.66 0 1 0 C2.13764351 4.26616316 3 7.56486311 3 12 C2.01 11.67 1.02 11.34 0 11 C0 7.37 0 3.74 0 0 Z " fill="#B01A0D" transform="translate(409,178)"/>
<path d="M0 0 C0.33 1.32 0.66 2.64 1 4 C-0.32 4.33 -1.64 4.66 -3 5 C-3 7.31 -3 9.62 -3 12 C-3.33 12 -3.66 12 -4 12 C-4.33 9.03 -4.66 6.06 -5 3 C-4.34 2.67 -3.68 2.34 -3 2 C-2.01 2.33 -1.02 2.66 0 3 C0 2.01 0 1.02 0 0 Z " fill="#DB8684" transform="translate(250,178)"/>
<path d="M0 0 C1.4540625 0.0309375 1.4540625 0.0309375 2.9375 0.0625 C2.9375 2.0425 2.9375 4.0225 2.9375 6.0625 C2.6075 6.0625 2.2775 6.0625 1.9375 6.0625 C1.9375 4.4125 1.9375 2.7625 1.9375 1.0625 C0.9475 1.3925 -0.0425 1.7225 -1.0625 2.0625 C-1.3925 4.0425 -1.7225 6.0225 -2.0625 8.0625 C-2.3925 8.0625 -2.7225 8.0625 -3.0625 8.0625 C-3.44313221 5.7364143 -3.77519945 3.40194736 -4.0625 1.0625 C-3.0625 0.0625 -3.0625 0.0625 0 0 Z " fill="#C58683" transform="translate(334.0625,161.9375)"/>
<path d="M0 0 C2 3 2 3 1.625 5.1875 C1.41875 5.785625 1.2125 6.38375 1 7 C-1 5.6875 -1 5.6875 -3 4 C-3 3.01 -3 2.02 -3 1 C-2.01 0.67 -1.02 0.34 0 0 Z " fill="#BB2D22" transform="translate(399,180)"/>
<path d="M0 0 C-1.1875 1.5625 -1.1875 1.5625 -3 3 C-5.6875 2.6875 -5.6875 2.6875 -8 2 C-8 1.34 -8 0.68 -8 0 C-5.13822943 -1.43088528 -3.06624227 -0.59991697 0 0 Z " fill="#B71506" transform="translate(295,179)"/>
<path d="M0 0 C0.33 0 0.66 0 1 0 C1.05399736 1.45792884 1.09279177 2.91642712 1.125 4.375 C1.14820313 5.18710938 1.17140625 5.99921875 1.1953125 6.8359375 C1 9 1 9 -1 11 C-3.125 10.625 -3.125 10.625 -5 10 C-2 8 -2 8 0 8 C0 5.36 0 2.72 0 0 Z " fill="#B76A67" transform="translate(387,183)"/>
<path d="M0 0 C1.65 0 3.3 0 5 0 C5.33 2.31 5.66 4.62 6 7 C4.68 5.68 3.36 4.36 2 3 C1.01 3.495 1.01 3.495 0 4 C0 2.68 0 1.36 0 0 Z " fill="#C3655D" transform="translate(318,174)"/>
<path d="M0 0 C0 0.99 0 1.98 0 3 C-0.66 3 -1.32 3 -2 3 C-2.66 4.98 -3.32 6.96 -4 9 C-4.97110486 5.97878489 -5.13617383 3.99536737 -4 1 C-2 0 -2 0 0 0 Z " fill="#B01909" transform="translate(393,164)"/>
<path d="M0 0 C0.33 0 0.66 0 1 0 C1 2.64 1 5.28 1 8 C-0.32 7.67 -1.64 7.34 -3 7 C-1.125 2.25 -1.125 2.25 0 0 Z " fill="#A3281A" transform="translate(228,191)"/>
<path d="M0 0 C0.33 0.66 0.66 1.32 1 2 C1.99 1.67 2.98 1.34 4 1 C3.67 2.65 3.34 4.3 3 6 C2.01 6 1.02 6 0 6 C0 4.02 0 2.04 0 0 Z " fill="#B72A20" transform="translate(448,192)"/>
<path d="M0 0 C0.66 0.33 1.32 0.66 2 1 C2 2.32 2 3.64 2 5 C0.35 5 -1.3 5 -3 5 C-3.33 4.34 -3.66 3.68 -4 3 C-2.68 2.01 -1.36 1.02 0 0 Z " fill="#B0251D" transform="translate(248,176)"/>
<path d="M0 0 C0 0.66 0 1.32 0 2 C-2.70879335 3.35439668 -5.00933268 3.06501451 -8 3 C-8 2.34 -8 1.68 -8 1 C-5.23735711 0.40267181 -2.83967231 0 0 0 Z " fill="#AF382D" transform="translate(274,191)"/>
<path d="M0 0 C0.66 0 1.32 0 2 0 C2.1875 2.875 2.1875 2.875 2 6 C1.01 6.66 0.02 7.32 -1 8 C-0.67 5.36 -0.34 2.72 0 0 Z " fill="#B41B0A" transform="translate(283,190)"/>
<path d="M0 0 C0.66 0 1.32 0 2 0 C2.33 1.65 2.66 3.3 3 5 C2.01 5.33 1.02 5.66 0 6 C-0.38218767 4.34385343 -0.71395102 2.67542976 -1 1 C-0.67 0.67 -0.34 0.34 0 0 Z " fill="#B11D0F" transform="translate(298,167)"/>
<path d="M0 0 C0.66 0 1.32 0 2 0 C1.49287967 3.71888239 0.88391785 6.73454239 -1 10 C-1.125 2.25 -1.125 2.25 0 0 Z " fill="#B13725" transform="translate(457,164)"/>
</svg>
